<?xml version="1.0" standalone="no"?><!DOCTYPE svg PUBLIC "-//W3C//DTD SVG 1.1//EN" "http://www.w3.org/Graphics/SVG/1.1/DTD/svg11.dtd"><svg t="1629353939341" class="icon" viewBox="0 0 1024 1024" version="1.1" xmlns="http://www.w3.org/2000/svg" p-id="6289" xmlns:xlink="http://www.w3.org/1999/xlink" width="128" height="128"><defs><style type="text/css"></style></defs><path d="M818.656 739.52h59.872a49.984 49.984 0 0 0 0-99.84H687.36a48.928 48.928 0 0 0-47.776 49.92v199.68a47.84 47.84 0 1 0 95.584 0v-96l201.376 213.12a48.352 48.352 0 1 0 68.256-68.48z m-615.2 0.64h-60.48a50.272 50.272 0 0 1 0-100.48H336a49.248 49.248 0 0 1 48.288 50.24v201.28a48.32 48.32 0 1 1-96.576 0v-96.64l-203.488 214.72a48.832 48.832 0 0 1-68.992-69.12zM821.664 284.48h60.16a49.952 49.952 0 0 1 0 99.84h-192a49.024 49.024 0 0 1-48-49.92V134.72a48 48 0 1 1 96 0v96L940.192 17.6a48.832 48.832 0 0 1 68.608 0 48.352 48.352 0 0 1 0 68.48zM203.456 283.84h-60.8a50.272 50.272 0 0 0 0 100.48h194.112a49.344 49.344 0 0 0 48.544-50.24V132.8a48.544 48.544 0 1 0-97.056 0v96.64L83.744 14.72A48.96 48.96 0 1 0 14.432 83.84z" p-id="6290"></path></svg>