<?xml version="1.0" standalone="no"?><!DOCTYPE svg PUBLIC "-//W3C//DTD SVG 1.1//EN" "http://www.w3.org/Graphics/SVG/1.1/DTD/svg11.dtd"><svg t="1629353807888" class="icon" viewBox="0 0 1024 1024" version="1.1" xmlns="http://www.w3.org/2000/svg" p-id="1235" xmlns:xlink="http://www.w3.org/1999/xlink" width="128" height="128"><defs><style type="text/css"></style></defs><path d="M639.328 416a31.872 31.872 0 0 0 22.304-9.056L864.256 209.76l-0.8 143.808a32 32 0 0 0 31.808 32.192h0.192a32 32 0 0 0 32-31.808l1.248-222.208c0-0.672-0.352-1.248-0.384-1.92 0.032-0.512 0.288-0.896 0.288-1.408a32 32 0 0 0-31.968-32.032L671.52 96a32 32 0 0 0-0.032 64l151.872 0.224-206.368 200.8A32 32 0 0 0 639.328 416z m256.704 223.552A32 32 0 0 0 864 671.52l-0.224 151.872-200.832-206.4a32 32 0 0 0-45.888 44.608L814.24 864.224l-143.808-0.8h-0.192a32 32 0 0 0-0.192 64l222.24 1.248h0.192c0.64 0 1.12-0.32 1.76-0.352 0.512 0.032 0.896 0.288 1.408 0.288h0.032a32 32 0 0 0 32-31.968l0.32-225.056a32 32 0 0 0-31.968-32.032zM209.76 159.744l143.808 0.8h0.192a32 32 0 0 0 0.192-64L131.68 95.328h-0.192c-0.672 0-1.248 0.352-1.888 0.384-0.448 0-0.8-0.256-1.248-0.256h-0.032a32 32 0 0 0-32 31.968L96 352.448a32 32 0 0 0 31.968 32.032H128a32 32 0 0 0 32-31.968l0.224-151.936 200.832 206.4a31.904 31.904 0 0 0 45.248 0.64 32 32 0 0 0 0.64-45.248L209.76 159.744z m152.608 457.312L159.744 814.24l0.8-143.808a32 32 0 0 0-31.808-32.192h-0.192a32 32 0 0 0-32 31.808l-1.248 222.24c0 0.704 0.352 1.312 0.384 2.016 0 0.448-0.256 0.832-0.256 1.312a32 32 0 0 0 31.968 32.032l225.056 0.352h0.032a32 32 0 0 0 0.032-64l-151.936-0.224 206.4-200.832a32 32 0 1 0-44.608-45.888z" fill="#333333" p-id="1236"></path></svg>